{
  "accessors": [
    {
      "bufferView": 2,
      "componentType": 5126,
      "count": 1462,
      "max": [
        -0.014507000334560871,
        0.0667629987001419,
        1.7244869470596313
      ],
      "min": [
        -0.18850000202655792,
        -0.12439099699258804,
        1.435359001159668
      ],
      "type": "VEC3"
    },
    {
      "bufferView": 2,
      "byteOffset": 17544,
      "componentType": 5126,
      "count": 1462,
      "max": [
        0.9929138422012329,
        0.9983494877815247,
        0.995846688747406
      ],
      "min": [
        -0.9998355507850647,
        -0.9996899962425232,
        -0.9991063475608826
      ],
      "type": "VEC3"
    },
    {
      "bufferView": 1,
      "componentType": 5126,
      "count": 1462,
      "max": [
        0.9895700216293335,
        0.9913899898529053
      ],
      "min": [
        0.010420000180602074,
        0.012780999764800072
      ],
      "type": "VEC2"
    },
    {
      "bufferView": 0,
      "componentType": 5125,
      "count": 7947,
      "type": "SCALAR"
    },
    {
      "bufferView": 2,
      "byteOffset": 35088,
      "componentType": 5126,
      "count": 5,
      "max": [
        0.025359999388456345,
        -0.0020210000220686197,
        1.0978269577026367
      ],
      "min": [
        -0.219417005777359,
        -0.030933000147342682,
        1.0731600522994995
      ],
      "type": "VEC3"
    },
    {
      "bufferView": 0,
      "byteOffset": 31788,
      "componentType": 5125,
      "count": 6,
      "type": "SCALAR"
    },
    {
      "bufferView": 2,
      "byteOffset": 35148,
      "componentType": 5126,
      "count": 251,
      "max": [
        0.025978999212384224,
        0.10622800141572952,
        1.0986709594726563
      ],
      "min": [
        -0.219417005777359,
        -0.09745900332927704,
        0.9315800070762634
      ],
      "type": "VEC3"
    },
    {
      "bufferView": 2,
      "byteOffset": 38160,
      "componentType": 5126,
      "count": 251,
      "max": [
        0.9546371698379517,
        0.9430856704711914,
        0.9937651753425598
      ],
      "min": [
        -0.9779210090637207,
        -0.9954504370689392,
        -0.7442081570625305
      ],
      "type": "VEC3"
    },
    {
      "bufferView": 1,
      "byteOffset": 11696,
      "componentType": 5126,
      "count": 251,
      "max": [
        0.9932000041007996,
        1.979599952697754
      ],
      "min": [
        0.0,
        0.0
      ],
      "type": "VEC2"
    },
    {
      "bufferView": 0,
      "byteOffset": 31812,
      "componentType": 5125,
      "count": 636,
      "type": "SCALAR"
    },
    {
      "bufferView": 2,
      "byteOffset": 41172,
      "componentType": 5126,
      "count": 1818,
      "max": [
        0.011733000166714191,
        0.10742499679327011,
        1.7515469789505005
      ],
      "min": [
        -0.20736099779605865,
        -0.13225999474525452,
        1.41708505153656
      ],
      "type": "VEC3"
    },
    {
      "bufferView": 2,
      "byteOffset": 62988,
      "componentType": 5126,
      "count": 1818,
      "max": [
        0.9997155070304871,
        0.9994550347328186,
        0.8680099248886108
      ],
      "min": [
        -0.9999834299087524,
        -0.999987006187439,
        -0.9983185529708862
      ],
      "type": "VEC3"
    },
    {
      "bufferView": 1,
      "byteOffset": 13704,
      "componentType": 5126,
      "count": 1818,
      "max": [
        1.0016000270843506,
        1.0007929801940918
      ],
      "min": [
        0.015441999770700932,
        -0.0006099999882280827
      ],
      "type": "VEC2"
    },
    {
      "bufferView": 0,
      "byteOffset": 34356,
      "componentType": 5125,
      "count": 6108,
      "type": "SCALAR"
    },
    {
      "bufferView": 2,
      "byteOffset": 84804,
      "componentType": 5126,
      "count": 1140,
      "max": [
        0.07476600259542465,
        0.10048700124025345,
        0.2799290120601654
      ],
      "min": [
        -0.04211200028657913,
        -0.16935500502586365,
        -0.02492300048470497
      ],
      "type": "VEC3"
    },
    {
      "bufferView": 2,
      "byteOffset": 98484,
      "componentType": 5126,
      "count": 1140,
      "max": [
        0.9998156428337097,
        0.9999395608901978,
        1.0
      ],
      "min": [
        -0.9998156428337097,
        -0.9999395608901978,
        -1.0
      ],
      "type": "VEC3"
    },
    {
      "bufferView": 1,
      "byteOffset": 28248,
      "componentType": 5126,
      "count": 1140,
      "max": [
        0.9951630234718323,
        0.9969480037689209
      ],
      "min": [
        0.0014949999749660492,
        0.0023499999660998583
      ],
      "type": "VEC2"
    },
    {
      "bufferView": 0,
      "byteOffset": 58788,
      "componentType": 5125,
      "count": 3168,
      "type": "SCALAR"
    },
    {
      "bufferView": 2,
      "byteOffset": 112164,
      "componentType": 5126,
      "count": 1146,
      "max": [
        -0.24381199479103088,
        0.10359299927949905,
        0.2818309962749481
      ],
      "min": [
        -0.40508198738098145,
        -0.1543000042438507,
        -0.033987998962402344
      ],
      "type": "VEC3"
    },
    {
      "bufferView": 2,
      "byteOffset": 125916,
      "componentType": 5126,
      "count": 1146,
      "max": [
        0.9996181130409241,
        0.9961391687393188,
        0.9999164342880249
      ],
      "min": [
        -0.9996181130409241,
        -0.9961391687393188,
        -0.9999164342880249
      ],
      "type": "VEC3"
    },
    {
      "bufferView": 1,
      "byteOffset": 37368,
      "componentType": 5126,
      "count": 1146,
      "max": [
        0.9951630234718323,
        0.9969480037689209
      ],
      "min": [
        0.0014949999749660492,
        0.0023499999660998583
      ],
      "type": "VEC2"
    },
    {
      "bufferView": 0,
      "byteOffset": 71460,
      "componentType": 5125,
      "count": 3168,
      "type": "SCALAR"
    },
    {
      "bufferView": 2,
      "byteOffset": 139668,
      "componentType": 5126,
      "count": 196,
      "max": [
        0.0985419973731041,
        0.13391800224781036,
        1.0358810424804688
      ],
      "min": [
        -0.28000500798225403,
        -0.10104899853467941,
        0.8036559820175171
      ],
      "type": "VEC3"
    },
    {
      "bufferView": 2,
      "byteOffset": 142020,
      "componentType": 5126,
      "count": 196,
      "max": [
        0.9944767355918884,
        0.9944491982460022,
        0.6399281024932861
      ],
      "min": [
        -0.9978854060173035,
        -0.9970654845237732,
        -0.9536362290382385
      ],
      "type": "VEC3"
    },
    {
      "bufferView": 1,
      "byteOffset": 46536,
      "componentType": 5126,
      "count": 196,
      "max": [
        0.9892529845237732,
        0.9925169944763184
      ],
      "min": [
        0.5114610195159912,
        0.0033919999841600657
      ],
      "type": "VEC2"
    },
    {
      "bufferView": 0,
      "byteOffset": 84132,
      "componentType": 5125,
      "count": 933,
      "type": "SCALAR"
    },
    {
      "bufferView": 2,
      "byteOffset": 144372,
      "componentType": 5126,
      "count": 1805,
      "max": [
        0.043827999383211136,
        0.10744799673557281,
        1.4644579887390137
      ],
      "min": [
        -0.24233099818229675,
        -0.18048900365829468,
        1.1548149585723877
      ],
      "type": "VEC3"
    },
    {
      "bufferView": 2,
      "byteOffset": 166032,
      "componentType": 5126,
      "count": 1805,
      "max": [
        0.9994020462036133,
        0.9928321838378906,
        0.9987538456916809
      ],
      "min": [
        -0.998913586139679,
        -0.9995753169059753,
        -0.9652326703071594
      ],
      "type": "VEC3"
    },
    {
      "bufferView": 1,
      "byteOffset": 48104,
      "componentType": 5126,
      "count": 1805,
      "max": [
        0.9890440106391907,
        0.9875950217247009
      ],
      "min": [
        0.010955999605357647,
        0.01565600000321865
      ],
      "type": "VEC2"
    },
    {
      "bufferView": 0,
      "byteOffset": 87864,
      "componentType": 5125,
      "count": 9792,
      "type": "SCALAR"
    },
    {
      "bufferView": 2,
      "byteOffset": 187692,
      "componentType": 5126,
      "count": 4132,
      "max": [
        0.1642879992723465,
        0.1266160011291504,
        1.486956000328064
      ],
      "min": [
        -0.33927398920059204,
        -0.17455700039863586,
        0.24751900136470795
      ],
      "type": "VEC3"
    },
    {
      "bufferView": 2,
      "byteOffset": 237276,
      "componentType": 5126,
      "count": 4132,
      "max": [
        0.9994360208511353,
        0.9995636343955994,
        0.9961033463478088
      ],
      "min": [
        -0.9998416304588318,
        -0.9999834299087524,
        -0.9995068907737732
      ],
      "type": "VEC3"
    },
    {
      "bufferView": 1,
      "byteOffset": 62544,
      "componentType": 5126,
      "count": 4132,
      "max": [
        0.9794920086860657,
        0.9400629997253418
      ],
      "min": [
        0.025604000315070152,
        0.02539299987256527
      ],
      "type": "VEC2"
    },
    {
      "bufferView": 0,
      "byteOffset": 127032,
      "componentType": 5125,
      "count": 21003,
      "type": "SCALAR"
    },
    {
      "bufferView": 2,
      "byteOffset": 286860,
      "componentType": 5126,
      "count": 16,
      "max": [
        0.0421609990298748,
        0.10079000145196915,
        0.7430369853973389
      ],
      "min": [
        -0.018501000478863716,
        -0.09823600202798843,
        0.7290390133857727
      ],
      "type": "VEC3"
    },
    {
      "bufferView": 1,
      "byteOffset": 95600,
      "componentType": 5126,
      "count": 16,
      "max": [
        0.0,
        0.0
      ],
      "min": [
        0.0,
        0.0
      ],
      "type": "VEC2"
    },
    {
      "bufferView": 0,
      "byteOffset": 211044,
      "componentType": 5125,
      "count": 28,
      "type": "SCALAR"
    },
    {
      "bufferView": 2,
      "byteOffset": 287052,
      "componentType": 5126,
      "count": 22993,
      "max": [
        0.09653999656438828,
        0.11552499979734421,
        1.052238941192627
      ],
      "min": [
        -0.2594720125198364,
        -0.1184839978814125,
        0.6953070163726807
      ],
      "type": "VEC3"
    },
    {
      "bufferView": 2,
      "byteOffset": 562968,
      "componentType": 5126,
      "count": 22993,
      "max": [
        0.999838650226593,
        0.9999048709869385,
        0.9999058246612549
      ],
      "min": [
        -0.999990701675415,
        -0.9999339580535889,
        -0.9999628067016602
      ],
      "type": "VEC3"
    },
    {
      "bufferView": 1,
      "byteOffset": 95728,
      "componentType": 5126,
      "count": 22993,
      "max": [
        0.9997259974479675,
        0.9957600235939026
      ],
      "min": [
        0.0002570000069681555,
        0.0009679999784566462
      ],
      "type": "VEC2"
    },
    {
      "bufferView": 0,
      "byteOffset": 211156,
      "componentType": 5125,
      "count": 118494,
      "type": "SCALAR"
    }
  ],
  "asset": {
    "extras": {
      "author": "rexxgta1993 (https://sketchfab.com/rexxgta1993)",
      "license": "CC-BY-NC-4.0 (http://creativecommons.org/licenses/by-nc/4.0/)",
      "source": "https://sketchfab.com/3d-models/assistant-hot-adventurer-outfit-0dfcc1463c414239870ae34058830396",
      "title": "Assistant - Hot Adventurer Outfit"
    },
    "generator": "Sketchfab-12.65.0",
    "version": "2.0"
  },
  "bufferViews": [
    {
      "buffer": 0,
      "byteLength": 685132,
      "name": "floatBufferViews",
      "target": 34963
    },
    {
      "buffer": 0,
      "byteLength": 279672,
      "byteOffset": 685132,
      "byteStride": 8,
      "name": "floatBufferViews",
      "target": 34962
    },
    {
      "buffer": 0,
      "byteLength": 838884,
      "byteOffset": 964804,
      "byteStride": 12,
      "name": "floatBufferViews",
      "target": 34962
    }
  ],
  "buffers": [
    {
      "byteLength": 1803688,
      "uri": "scene.bin"
    }
  ],
  "extensionsRequired": [
    "KHR_materials_pbrSpecularGlossiness"
  ],
  "extensionsUsed": [
    "KHR_materials_pbrSpecularGlossiness"
  ],
  "images": [
    {
      "uri": "textures/22_body.1nPart.part.005_1.0_0_0.000_diffuse.png"
    },
    {
      "uri": "textures/7_hair_1_0_0_diffuse.png"
    },
    {
      "uri": "textures/Material.004_diffuse.png"
    },
    {
      "uri": "textures/Material.007_diffuse.png"
    },
    {
      "uri": "textures/Material.008_diffuse.png"
    },
    {
      "uri": "textures/Material.010_diffuse.png"
    },
    {
      "uri": "textures/belt_diffuse.png"
    }
  ],
  "materials": [
    {
      "doubleSided": true,
      "extensions": {
        "KHR_materials_pbrSpecularGlossiness": {
          "diffuseFactor": [
            1.0,
            1.0,
            1.0,
            1.0
          ],
          "diffuseTexture": {
            "index": 0
          },
          "glossinessFactor": 0.0,
          "specularFactor": [
            0.0,
            0.0,
            0.0
          ]
        }
      },
      "name": "22_body.1nPart.part.005_1.0_0_0.000"
    },
    {
      "alphaMode": "BLEND",
      "doubleSided": true,
      "extensions": {
        "KHR_materials_pbrSpecularGlossiness": {
          "diffuseFactor": [
            0.6103830000000001,
            0.7393819999999998,
            0.9211559999999999,
            0.0
          ],
          "glossinessFactor": 0.0,
          "specularFactor": [
            0.0,
            0.0,
            0.0
          ]
        }
      },
      "name": "23_Bikini_A_Panty.Mesh1_0.3_0_0.002"
    },
    {
      "alphaMode": "BLEND",
      "doubleSided": true,
      "extensions": {
        "KHR_materials_pbrSpecularGlossiness": {
          "diffuseFactor": [
            1.0,
            1.0,
            1.0,
            1.0
          ],
          "diffuseTexture": {
            "index": 1
          },
          "glossinessFactor": 0.0,
          "specularFactor": [
            0.0,
            0.0,
            0.0
          ]
        }
      },
      "name": "7_hair_1_0_0"
    },
    {
      "doubleSided": true,
      "extensions": {
        "KHR_materials_pbrSpecularGlossiness": {
          "diffuseFactor": [
            1.0,
            1.0,
            1.0,
            1.0
          ],
          "diffuseTexture": {
            "index": 2
          },
          "glossinessFactor": 0.21196816244197753,
          "specularFactor": [
            0.0,
            0.0,
            0.0
          ]
        }
      },
      "name": "Material.004"
    },
    {
      "doubleSided": true,
      "extensions": {
        "KHR_materials_pbrSpecularGlossiness": {
          "diffuseFactor": [
            1.0,
            1.0,
            1.0,
            1.0
          ],
          "diffuseTexture": {
            "index": 2
          },
          "glossinessFactor": 0.21196816244197753,
          "specularFactor": [
            0.0,
            0.0,
            0.0
          ]
        }
      },
      "name": "Material.005"
    },
    {
      "doubleSided": true,
      "extensions": {
        "KHR_materials_pbrSpecularGlossiness": {
          "diffuseFactor": [
            1.0,
            1.0,
            1.0,
            1.0
          ],
          "diffuseTexture": {
            "index": 3
          },
          "glossinessFactor": 0.21196816244197753,
          "specularFactor": [
            0.0,
            0.0,
            0.0
          ]
        }
      },
      "name": "Material.007"
    },
    {
      "doubleSided": true,
      "extensions": {
        "KHR_materials_pbrSpecularGlossiness": {
          "diffuseFactor": [
            1.0,
            1.0,
            1.0,
            1.0
          ],
          "diffuseTexture": {
            "index": 4
          },
          "glossinessFactor": 0.21196816244197753,
          "specularFactor": [
            0.0,
            0.0,
            0.0
          ]
        }
      },
      "name": "Material.008"
    },
    {
      "doubleSided": true,
      "extensions": {
        "KHR_materials_pbrSpecularGlossiness": {
          "diffuseFactor": [
            1.0,
            1.0,
            1.0,
            1.0
          ],
          "diffuseTexture": {
            "index": 5
          },
          "glossinessFactor": 0.21196816244197753,
          "specularFactor": [
            0.0,
            0.0,
            0.0
          ]
        }
      },
      "name": "Material.010"
    },
    {
      "doubleSided": true,
      "extensions": {
        "KHR_materials_pbrSpecularGlossiness": {
          "diffuseFactor": [
            1.0,
            1.0,
            1.0,
            1.0
          ],
          "diffuseTexture": {
            "index": 6
          },
          "glossinessFactor": 0.19364916731037085,
          "specularFactor": [
            0.0,
            0.0,
            0.0
          ]
        }
      },
      "name": "belt"
    }
  ],
  "meshes": [
    {
      "name": "Object_0",
      "primitives": [
        {
          "attributes": {
            "NORMAL": 1,
            "POSITION": 0,
            "TEXCOORD_0": 2
          },
          "indices": 3,
          "material": 0,
          "mode": 4
        }
      ]
    },
    {
      "name": "Object_1",
      "primitives": [
        {
          "attributes": {
            "POSITION": 4
          },
          "indices": 5,
          "material": 1,
          "mode": 1
        }
      ]
    },
    {
      "name": "Object_2",
      "primitives": [
        {
          "attributes": {
            "NORMAL": 7,
            "POSITION": 6,
            "TEXCOORD_0": 8
          },
          "indices": 9,
          "material": 1,
          "mode": 4
        }
      ]
    },
    {
      "name": "Object_3",
      "primitives": [
        {
          "attributes": {
            "NORMAL": 11,
            "POSITION": 10,
            "TEXCOORD_0": 12
          },
          "indices": 13,
          "material": 2,
          "mode": 4
        }
      ]
    },
    {
      "name": "Object_4",
      "primitives": [
        {
          "attributes": {
            "NORMAL": 15,
            "POSITION": 14,
            "TEXCOORD_0": 16
          },
          "indices": 17,
          "material": 3,
          "mode": 4
        }
      ]
    },
    {
      "name": "Object_5",
      "primitives": [
        {
          "attributes": {
            "NORMAL": 19,
            "POSITION": 18,
            "TEXCOORD_0": 20
          },
          "indices": 21,
          "material": 4,
          "mode": 4
        }
      ]
    },
    {
      "name": "Object_6",
      "primitives": [
        {
          "attributes": {
            "NORMAL": 23,
            "POSITION": 22,
            "TEXCOORD_0": 24
          },
          "indices": 25,
          "material": 5,
          "mode": 4
        }
      ]
    },
    {
      "name": "Object_7",
      "primitives": [
        {
          "attributes": {
            "NORMAL": 27,
            "POSITION": 26,
            "TEXCOORD_0": 28
          },
          "indices": 29,
          "material": 6,
          "mode": 4
        }
      ]
    },
    {
      "name": "Object_8",
      "primitives": [
        {
          "attributes": {
            "NORMAL": 31,
            "POSITION": 30,
            "TEXCOORD_0": 32
          },
          "indices": 33,
          "material": 7,
          "mode": 4
        }
      ]
    },
    {
      "name": "Object_9",
      "primitives": [
        {
          "attributes": {
            "POSITION": 34,
            "TEXCOORD_0": 35
          },
          "indices": 36,
          "material": 8,
          "mode": 1
        }
      ]
    },
    {
      "name": "Object_10",
      "primitives": [
        {
          "attributes": {
            "NORMAL": 38,
            "POSITION": 37,
            "TEXCOORD_0": 39
          },
          "indices": 40,
          "material": 8,
          "mode": 4
        }
      ]
    }
  ],
  "nodes": [
    {
      "children": [
        1
      ],
      "matrix": [
        1.0,
        0.0,
        0.0,
        0.0,
        0.0,
        2.220446049250313e-16,
        -1.0,
        0.0,
        0.0,
        1.0,
        2.220446049250313e-16,
        0.0,
        0.0,
        0.0,
        0.0,
        1.0
      ],
      "name": "Sketchfab_model"
    },
    {
      "children": [
        2,
        3,
        4,
        5,
        6,
        7,
        8,
        9,
        10,
        11,
        12
      ],
      "name": "assistant_hot_adventurer.obj.cleaner.materialmerger.gles"
    },
    {
      "mesh": 0,
      "name": "Object_2"
    },
    {
      "mesh": 1,
      "name": "Object_3"
    },
    {
      "mesh": 2,
      "name": "Object_4"
    },
    {
      "mesh": 3,
      "name": "Object_5"
    },
    {
      "mesh": 4,
      "name": "Object_6"
    },
    {
      "mesh": 5,
      "name": "Object_7"
    },
    {
      "mesh": 6,
      "name": "Object_8"
    },
    {
      "mesh": 7,
      "name": "Object_9"
    },
    {
      "mesh": 8,
      "name": "Object_10"
    },
    {
      "mesh": 9,
      "name": "Object_11"
    },
    {
      "mesh": 10,
      "name": "Object_12"
    }
  ],
  "samplers": [
    {
      "magFilter": 9729,
      "minFilter": 9987,
      "wrapS": 10497,
      "wrapT": 10497
    }
  ],
  "scene": 0,
  "scenes": [
    {
      "name": "Sketchfab_Scene",
      "nodes": [
        0
      ]
    }
  ],
  "textures": [
    {
      "sampler": 0,
      "source": 0
    },
    {
      "sampler": 0,
      "source": 1
    },
    {
      "sampler": 0,
      "source": 2
    },
    {
      "sampler": 0,
      "source": 3
    },
    {
      "sampler": 0,
      "source": 4
    },
    {
      "sampler": 0,
      "source": 5
    },
    {
      "sampler": 0,
      "source": 6
    }
  ]
}
